<svg enable-background="new 0 0 1024 1024" version="1.1" viewBox="0 0 1024 1280" xml:space="preserve" xmlns="http://www.w3.org/2000/svg"><g><g>
  <path d="m797.3 210.5v66.6 158.4 190.4 162.7c0 25.1 0.1 50.2 0 75.3 0 4.3-0.3 8.6-0.8 12.9 0.5-3.5 1-7.1 1.4-10.6-1.1 8-3.2 15.8-6.3 23.3 1.3-3.2 2.7-6.4 4-9.6-3.1 7.3-7 14.1-11.8 20.4 2.1-2.7 4.2-5.4 6.3-8.1-5.1 6.6-10.9 12.4-17.5 17.5l8.1-6.3c-6.3 4.8-13.1 8.7-20.4 11.8 3.2-1.3 6.4-2.7 9.6-4-7.5 3.1-15.3 5.2-23.3 6.3 3.5-0.5 7.1-1 10.6-1.4-18.2 2.3-37.2 0.8-55.5 0.8h-112.5-137.6-118.4c-17.9 0-35.8 0.1-53.7 0-4.2 0-8.4-0.3-12.6-0.8 3.5 0.5 7.1 1 10.6 1.4-8-1.1-15.8-3.2-23.3-6.3 3.2 1.3 6.4 2.7 9.6 4-7.3-3.1-14.1-7-20.4-11.8l8.1 6.3c-6.6-5.1-12.4-10.9-17.5-17.5 2.1 2.7 4.2 5.4 6.3 8.1-4.8-6.3-8.7-13.1-11.8-20.4 1.3 3.2 2.7 6.4 4 9.6-3.1-7.5-5.2-15.3-6.3-23.3 0.5 3.5 1 7.1 1.4 10.6-1.1-9-0.8-18.2-0.8-27.3v-46.1-155.4-190.2-165.3c0-26.9 0.3-53.8 0-80.7v-1.2c0-20.9-18.4-41-40-40-21.7 1-40 17.6-40 40v36.6 94.8 128.9 140 127.8 92.5c0 14.2-1 28.8 0.5 43 2.3 21.7 8 42.8 20.1 61.3 11.7 17.8 26.9 33 45.4 43.7 21.2 12.3 45.2 17.9 69.6 17.9h69.3 126.4 137.5 102.6 23.9c24.9 0 50-6 71.3-19.2 37.9-23.4 61-63.5 63.6-107.8 0.3-4.7 0.2-9.4 0.2-14.1v-66.9-113.5-137-137.2-114.4-67.4-9c0-20.9-18.4-41-40-40-21.6 0.8-39.9 17.4-39.9 39.9z"/>
  <path d="m920.3 165.5h-21.8-59.3-88.2-107.1-117.3-118.4-110.5-93.4-67.2c-10.6 0-21.3-0.1-32 0h-1.4c-20.9 0-41 18.4-40 40 1 21.7 17.6 40 40 40h21.8 59.3 88.2 107.1 117.3 118.4 110.5 93.4 67.2c10.6 0 21.3 0.1 32 0h1.4c20.9 0 41-18.4 40-40-1-21.7-17.6-40-40-40z"/>
  <path d="m768.2 205.5v-62.4c0-12.5-0.1-24.1-2.4-36.6-0.8-4.4-2.1-8.6-3.8-12.8-2.9-7.1-5.7-14.2-10-20.4-8.8-12.7-18.5-22.6-31.5-31-20-12.9-42.6-15.2-65.6-15.2h-54-159.5-62.6c-14.2 0-27.5-0.1-41.7 2.1-27.1 4.3-50.4 22.3-65.5 44.6-11.2 16.6-15.9 37.1-15.9 56.9v68.4 6.3c0 20.9 18.4 41 40 40 21.7-1 40-17.6 40-40v-41.7c0-14.5-1.2-29.6 0.6-44-0.5 3.5-1 7.1-1.4 10.6 0.8-5.3 2.2-10.5 4.2-15.5-1.3 3.2-2.7 6.4-4 9.6 2.1-4.8 4.7-9.3 7.9-13.5-2.1 2.7-4.2 5.4-6.3 8.1 3.2-4.1 6.9-7.8 11-11l-8.1 6.3c4.2-3.2 8.7-5.8 13.5-7.9-3.2 1.3-6.4 2.7-9.6 4 5-2 10.1-3.4 15.5-4.2-3.5 0.5-7.1 1-10.6 1.4 12.2-1.5 25-0.6 37.3-0.6h75.1 170.3c14.6 0 29.9-1.2 44.4 0.6-3.5-0.5-7.1-1-10.6-1.4 5.3 0.8 10.5 2.2 15.5 4.2-3.2-1.3-6.4-2.7-9.6-4 4.8 2.1 9.3 4.7 13.5 7.9l-8.1-6.3c4.1 3.2 7.8 6.9 11 11-2.1-2.7-4.2-5.4-6.3-8.1 3.2 4.2 5.8 8.7 7.9 13.5-1.3-3.2-2.7-6.4-4-9.6 2 5 3.4 10.1 4.2 15.5-0.5-3.5-1-7.1-1.4-10.6 1.8 14.4 0.6 29.5 0.6 44v41.7c0 20.9 18.4 41 40 40 21.7-0.9 40-17.5 40-39.9z"/>
  <path d="m302.7 366.5v43.3 103.5 125.7 108.3c0 17.6-0.3 35.2 0 52.7v0.8c0 20.9 18.4 41 40 40 21.7-1 40-17.6 40-40v-43.3-103.5-125.7-108.3c0-17.6 0.3-35.2 0-52.7v-0.8c0-20.9-18.4-41-40-40-21.7 0.9-40 17.5-40 40z"/>
  <path d="m552 800.8v-43.3-103.5-125.7-108.3c0-17.6 0.3-35.2 0-52.7v-0.8c0-20.9-18.4-41-40-40-21.7 1-40 17.6-40 40v43.3 103.5 125.7 108.3c0 17.6-0.3 35.2 0 52.7v0.8c0 20.9 18.4 41 40 40 21.7-0.9 40-17.5 40-40z"/>
  <path d="m721.3 800.8v-43.3-103.5-125.7-108.3c0-17.6 0.3-35.2 0-52.7v-0.8c0-20.9-18.4-41-40-40-21.7 1-40 17.6-40 40v43.3 103.5 125.7 108.3c0 17.6-0.3 35.2 0 52.7v0.8c0 20.9 18.4 41 40 40 21.7-0.9 40-17.5 40-40z"/>
  </g></g>
</svg>