<svg enable-background="new 0 0 96 96" version="1.1" viewBox="0 0 96 120" xml:space="preserve" xmlns="http://www.w3.org/2000/svg">
  <g>
    <path d="m80.7 9.7c-3.9-3.9-10.2-3.9-14.1 0l-51.3 51.2c-0.2 0.2-0.3 0.3-0.4 0.5 0 0 0 0.1-0.1 0.1-0.1 0.2-0.2 0.3-0.2 0.5v0.1l-6.8 22.2c-0.3 1.1 0 2.2 0.7 3 0.6 0.6 1.3 0.9 2.1 0.9 0.3 0 0.6 0 0.9-0.1l22.1-6.8h0.1c0.2-0.1 0.4-0.1 0.5-0.2 0 0 0.1 0 0.1-0.1 0.2-0.1 0.4-0.2 0.5-0.4l51.2-51.2c3.9-3.9 3.9-10.2 0-14.1l-5.3-5.6zm-65.5 70.9l3.7-11.9 8.3 8.3-12 3.6zm17.6-6.5l-11.1-11 38.8-38.8 11.1 11.1-38.8 38.7zm49-49.1l-6 6-11-11 6-6c1.6-1.6 4.1-1.6 5.7 0l5.4 5.4c1.5 1.5 1.5 4.1-0.1 5.6z"/>
  </g>
</svg>